<svg xmlns="http://www.w3.org/2000/svg" style="display:none;">

  <symbol id="icon-arrow-down" viewBox="0 0 24 24">
    <path
      fill="none"
      stroke="currentColor"
      stroke-width="2.5"
      stroke-linecap="round"
      stroke-linejoin="round"
      d="M19.5 8.25l-7.5 7.5-7.5-7.5"
    />
  </symbol>

  <symbol id="icon-map-pin" viewBox="0 0 120 120" fill="currentColor">
    <path d="M60.5-0.12c-24.778,0-44.865,20.087-44.865,44.865c0,41.909,44.865,75.405,44.865,75.405s44.865-33.494,44.865-75.405C105.365,19.966,85.277-0.121,60.5-0.12z M60.501,64.568c-10.948,0-19.823-8.875-19.823-19.823c0-10.948,8.875-19.823,19.823-19.823c10.948,0,19.823,8.875,19.823,19.823C80.324,55.693,71.449,64.568,60.501,64.568z"/>
  </symbol>

  <symbol id="icon-phone" viewBox="0 0 24 24" fill="currentColor">
    <path
      fillRule="evenodd"
      d="M1.5 4.5a3 3 0 013-3h1.372c.86 0 1.61.586 1.819 1.42l1.105 4.423a1.875 1.875 0 01-.694 1.955l-1.293.97c-.135.101-.164.249-.126.352a11.285 11.285 0 006.697 6.697c.103.038.25.009.352-.126l.97-1.293a1.875 1.875 0 011.955-.694l4.423 1.105c.834.209 1.42.959 1.42 1.82V19.5a3 3 0 01-3 3h-2.25C8.552 22.5 1.5 15.448 1.5 6.75V4.5z"
      clipRule="evenodd"
    />
  </symbol>

  <symbol id="icon-mail" viewBox="0 0 24 24" fill="currentColor">
    <path d="M1.5 8.67v8.58a3 3 0 003 3h15a3 3 0 003-3V8.67l-8.928 5.493a3 3 0 01-3.144 0L1.5 8.67z" />
    <path d="M22.5 6.908V6.75a3 3 0 00-3-3h-15a3 3 0 00-3 3v.158l9.714 5.978a1.5 1.5 0 001.572 0L22.5 6.908z" />
  </symbol>

<symbol id="icon-clock" viewBox="0 0 16 16" fill="currentColor">
  <path fill-rule="evenodd" d="M0 8a8 8 0 1116 0A8 8 0 010 8zm8.5-4.25a.75.75 0 00-1.5 0V8c0 .284.16.544.415.67l2.5 1.25a.75.75 0 10.67-1.34L8.5 7.535V3.75z" clip-rule="evenodd"/>
</symbol>

<symbol id="icon-close-x" viewBox="0 0 1024 1024" fill="currentColor">
  <path d="M195.2 195.2a64 64 0 0 1 90.496 0L512 421.504 738.304 195.2a64 64 0 0 1 90.496 90.496L602.496 512 828.8 738.304a64 64 0 0 1-90.496 90.496L512 602.496 285.696 828.8a64 64 0 0 1-90.496-90.496L421.504 512 195.2 285.696a64 64 0 0 1 0-90.496z"/>
</symbol>

<symbol id="icon-spinner" viewBox="0 0 24 24">
  <circle
    cx="12"
    cy="12"
    r="10"
    stroke="currentColor"
    stroke-width="4"
    style="opacity: 0.25;"
  ></circle>

  <path
    fill="currentColor"
    d="M4 12a8 8 0 018-8V0C5.373 0 0 5.373 0 12h4zm2 5.291A7.962 7.962 0 014 12H0c0 3.042 1.135 5.824 3 7.938l3-2.647z"
    style="opacity: 0.75;"
  ></path>
</symbol>

<symbol id="icon-heart" viewBox="0 0 24 24" fill="currentColor">
  <path clip-rule="evenodd" d="M6.47358 1.96511C8.27963 1.93827 10.2651 2.62414 12 4.04838C13.7349 2.62414 15.7204 1.93827 17.5264 1.96511C19.5142 1.99465 21.3334 2.90112 22.2141 4.68531C23.0878 6.45529 22.9326 8.87625 21.4643 11.7362C19.9939 14.6003 17.1643 18.0021 12.4867 21.8566C12.4382 21.898 12.3855 21.9324 12.3298 21.9596C12.1243 22.0601 11.8798 22.0624 11.6702 21.9596C11.6145 21.9324 11.5618 21.898 11.5133 21.8566C6.83565 18.0021 4.00609 14.6003 2.53569 11.7362C1.06742 8.87625 0.912211 6.45529 1.78589 4.68531C2.66659 2.90112 4.4858 1.99465 6.47358 1.96511Z" fill-rule="evenodd"/>
</symbol>

</svg>
